<svg xmlns="http://www.w3.org/2000/svg" width="21.14" height="21.14" viewBox="0 0 21.14 21.14">
  <g id="Groupe_1016" data-name="Groupe 1016" transform="translate(-347 -294.729)">
    <rect id="Rectangle_370" data-name="Rectangle 370" width="21.14" height="21.14" transform="translate(347 294.729)" fill="#a6d4f9"/>
    <path id="Tracé_585" data-name="Tracé 585" d="M436.027,15.9a9.2,9.2,0,1,1-9.2-9.2,9.2,9.2,0,0,1,9.2,9.2" transform="translate(-69.234 289.408)" fill="#125ed4"/>
    <path id="Tracé_586" data-name="Tracé 586" d="M443.627,26.165a6.538,6.538,0,1,1-6.538-6.538h0A6.538,6.538,0,0,1,443.627,26.165Z" transform="translate(-79.497 279.144)" fill="#a6d4f9"/>
    <path id="Tracé_587" data-name="Tracé 587" d="M454.713,41.132a2.655,2.655,0,1,1-2.655-2.655A2.655,2.655,0,0,1,454.713,41.132Z" transform="translate(-94.466 264.177)" fill="#125ed4"/>
  </g>
</svg>
