<svg xmlns="http://www.w3.org/2000/svg" width="110" height="41.841" viewBox="0 0 110 41.841">
  <g id="Groupe_1023" data-name="Groupe 1023" transform="translate(-122 -32)">
    <path id="Tracé_1" data-name="Tracé 1" d="M228.746,259.291,230,261.605a8.917,8.917,0,0,1-5.437,1.757,7.085,7.085,0,0,1-7.222-7.222A6.959,6.959,0,0,1,224.313,249c4.015,0,6.385,2.983,6.385,6.8,0,.53-.028.976-.056,1.478h-9.927a.089.089,0,0,0-.084.083,4.011,4.011,0,0,0,4.1,3.067,7.914,7.914,0,0,0,4.015-1.143m-8.114-4.461c0,.028.055.055.111.055h6.664a.291.291,0,0,0,.111-.028,3.18,3.18,0,0,0-3.318-3.011c-1.868,0-3.569,1.645-3.569,2.983" transform="translate(-95.342 -212.624)" fill="#fff"/>
    <path id="Tracé_2" data-name="Tracé 2" d="M273.686,239.708l3.1-.742v17.951h-3.1Z" transform="translate(-130.273 -206.403)" fill="#fff"/>
    <path id="Tracé_3" data-name="Tracé 3" d="M306.126,249.786v13.942h-3.1v-13.2Z" transform="translate(-148.466 -213.11)" fill="#fff"/>
    <path id="Tracé_4" data-name="Tracé 4" d="M339.6,248.928a7.194,7.194,0,1,1-7.222,7.167,7.165,7.165,0,0,1,7.222-7.167m0,11.293a4.1,4.1,0,1,0-4.1-4.127,4.076,4.076,0,0,0,4.1,4.127" transform="translate(-166.658 -212.578)" fill="#fff"/>
    <path id="Tracé_5" data-name="Tracé 5" d="M391.436,243.031v-3.414l3.095-.741v4.155h3.6v2.788h-3.6v11.042h-3.095v-13.83Z" transform="translate(-203.272 -206.347)" fill="#fff"/>
    <path id="Tracé_6" data-name="Tracé 6" d="M430.245,243.031v-3.419l3.1-.736v4.155h3.6v2.788h-3.6v11.042h-3.1v-13.83Z" transform="translate(-227.332 -206.347)" fill="#fff"/>
    <path id="Tracé_7" data-name="Tracé 7" d="M218.148,310.732l2.874.688a5.146,5.146,0,0,1,3.148-1.007,6.1,6.1,0,0,1,4.517,1.834,6.139,6.139,0,0,1,4.516-1.834,5.678,5.678,0,0,1,6.049,5.83v8.075h-3.011v-7.883a3.075,3.075,0,0,0-3.011-3.011,2.968,2.968,0,0,0-3.038,2.792v8.1h-3.011v-7.883a3.056,3.056,0,0,0-3.011-3.011,2.736,2.736,0,0,0-3.011,2.846v8.047h-3.011Z" transform="translate(-95.842 -250.696)" fill="#fff"/>
    <path id="Tracé_8" data-name="Tracé 8" d="M306.14,310.732v13.586h-2.847v-1.177a6.9,6.9,0,0,1-4.215,1.4,7.062,7.062,0,1,1,4.215-12.7v-.424Zm-7.062,10.794a4.051,4.051,0,1,0-4.051-4.051,4.008,4.008,0,0,0,4.051,4.051" transform="translate(-141.637 -250.696)" fill="#fff"/>
    <path id="Tracé_9" data-name="Tracé 9" d="M353.767,310.732l2.9.693a5.172,5.172,0,0,1,3.366-1.012H361.4v3.065h-1.259c-1.944.027-3.312.9-3.367,2.82v8.02h-3.011Z" transform="translate(-179.919 -250.696)" fill="#fff"/>
    <path id="Tracé_10" data-name="Tracé 10" d="M394.543,308.994c0,.055.027.082.055.082s.055-.055.082-.109c1.259-1.834,2.491-3.7,3.75-5.557h3.476l-4.051,6.077-.438.6.41.685c1.368,2.108,2.71,4.215,4.051,6.323H398.4c-1.423-2.245-2.518-3.969-3.449-5.392a3.742,3.742,0,0,0-.356-.547c-.027,0-.055.027-.055.109v5.83h-3.011V299.487l3.011-.723Z" transform="translate(-203.332 -243.474)" fill="#fff"/>
    <path id="Tracé_11" data-name="Tracé 11" d="M303.031,238.989a1.548,1.548,0,0,1,1.561-1.506,1.581,1.581,0,0,1,1.534,1.506,1.548,1.548,0,1,1-3.1,0" transform="translate(-148.465 -205.483)" fill="#fff"/>
    <path id="Tracé_12" data-name="Tracé 12" d="M480.658,251.61a.978.978,0,0,1-.142-.189.735.735,0,0,1,.118-.236l2.726-5.24-2.938,0-1.887,3.609-2.264-2.264a4.815,4.815,0,0,0,2.193-4.057,4.069,4.069,0,0,0-8.136,0,4.871,4.871,0,0,0,2.075,3.773c-2.193,1.439-3.349,3.208-3.349,5.165a5.2,5.2,0,0,0,5.283,5.142,5.139,5.139,0,0,0,4.716-3.089l.189-.378c.9.9,2.217,2.17,3.349,3.278l0-3.649Zm-6.182-9.791a1.4,1.4,0,0,1,1.4,1.6c0,1.26-1.394,1.844-1.394,1.844a2.056,2.056,0,0,1-1.388-1.858c0-1.4.971-1.59,1.382-1.59m2.573,10.663c-.5,1.062-1.368,2.264-2.736,2.264a2.647,2.647,0,0,1-2.665-2.665c0-1.415,1.3-2.5,2.476-3.184,1.038,1.038,2.1,2.052,3.137,3.066a1.613,1.613,0,0,1-.212.518" transform="translate(-251.392 -206.58)" fill="#fff"/>
    <path id="Tracé_13" data-name="Tracé 13" d="M490.9,316.653c-1.259-.849-2.573-1.314-2.573-2.245a1.058,1.058,0,0,1,1.095-1.068,1.5,1.5,0,0,1,1.341.9H493.3a4.741,4.741,0,0,0-.378-1.45,4.049,4.049,0,0,0-3.5-2.382,3.885,3.885,0,0,0-3.969,4.024c0,2.19,1.533,3.093,2.683,3.723,1.232.685,2.162,1.4,2.162,2.272a1.2,1.2,0,0,1-1.177,1.177,1.838,1.838,0,0,1-1.533-1.013l-.013.008,0-.006h-2.54a4.02,4.02,0,0,0,.332,1.42h0a4.2,4.2,0,0,0,3.832,2.519,3.881,3.881,0,0,0,3.969-3.942,4.524,4.524,0,0,0-2.272-3.941" transform="translate(-261.3 -250.696)" fill="#fff"/>
    <path id="Tracé_14" data-name="Tracé 14" d="M448.146,324.6l-2.874-.767a5.2,5.2,0,0,1-3.148.986,5.684,5.684,0,0,1-6.049-5.858v-8.02h3.011v7.829a3.056,3.056,0,0,0,3.011,3.011,2.725,2.725,0,0,0,3.011-2.847v-7.993h3.038Z" transform="translate(-230.946 -251.022)" fill="#fff"/>
  </g>
</svg>
