<svg class="svg-icon" viewBox="0 0 24 24" fill="#ededed">
  <path d="M12 2.163c3.204 0 3.584.012 4.849.07 1.366.062 2.633.335 3.608 1.31.975.975 1.248 2.242 1.31 3.608.059 1.265.069 1.645.069 4.849s-.01 3.584-.069 4.849c-.062 1.366-.335 2.633-1.31 3.608-.975.975-2.242 1.248-3.608 1.31-1.265.059-1.645.069-4.849.069s-3.584-.01-4.849-.069c-1.366-.062-2.633-.335-3.608-1.31-.975-.975-1.248-2.242-1.31-3.608-.059-1.265-.069-1.645-.069-4.849s.01-3.584.069-4.849c.062-1.366.335-2.633 1.31-3.608.975-.975 2.242-1.248 3.608-1.31 1.265-.059 1.645-.069 4.849-.069M12 0C8.741 0 8.332.015 7.053.073 5.775.131 4.616.407 3.675 1.349 2.734 2.291 2.458 3.45 2.4 4.728 2.343 6.008 2.328 6.417 2.328 10.05s.015 4.042.072 5.322c.058 1.278.335 2.437 1.276 3.378.941.942 2.1 1.218 3.378 1.276 1.28.057 1.689.072 5.322.072s4.042-.015 5.322-.072c1.278-.058 2.437-.335 3.378-1.276.942-.941 1.218-2.1 1.276-3.378.057-1.28.072-1.689.072-5.322s-.015-4.042-.072-5.322c-.058-1.278-.335-2.437-1.276-3.378-.941-.942-2.1-1.218-3.378-1.276C16.042.015 15.633 0 12 0zm0 5.838a6.162 6.162 0 0 0-6.163 6.162 6.162 6.162 0 0 0 6.163 6.162 6.162 6.162 0 0 0 6.162-6.162A6.162 6.162 0 0 0 12 5.838zm0 10.162a3.999 3.999 0 1 1 0-7.998 3.999 3.999 0 0 1 0 7.998zm6.406-10.845a1.44 1.44 0 1 1-2.88 0 1.44 1.44 0 0 1 2.88 0z"/>
</svg>
