<svg xmlns="http://www.w3.org/2000/svg" width="16.116" height="16.115" viewBox="0 0 16.116 16.115">
  <path id="Icon_awesome-linkedin-in" data-name="Icon awesome-linkedin-in" d="M3.607,16.116H.266V5.357H3.607ZM1.935,3.889A1.944,1.944,0,1,1,3.87,1.936,1.951,1.951,0,0,1,1.935,3.889ZM16.112,16.116H12.778V10.878c0-1.248-.025-2.849-1.737-2.849-1.737,0-2,1.356-2,2.759v5.328H5.7V5.357H8.9V6.824h.047a3.511,3.511,0,0,1,3.161-1.737c3.381,0,4,2.227,4,5.119v5.91Z" transform="translate(0 -0.001)" fill="#222"/>
</svg>
