<svg xmlns="http://www.w3.org/2000/svg" width="18.418" height="14.959" viewBox="0 0 18.418 14.959">
  <path id="Icon_awesome-twitter" data-name="Icon awesome-twitter" d="M16.525,7.109c.012.164.012.327.012.491A10.666,10.666,0,0,1,5.8,18.339,10.667,10.667,0,0,1,0,16.645a7.809,7.809,0,0,0,.912.047A7.56,7.56,0,0,0,5.6,15.079a3.781,3.781,0,0,1-3.529-2.618,4.76,4.76,0,0,0,.713.058,3.992,3.992,0,0,0,.993-.129,3.775,3.775,0,0,1-3.027-3.7V8.64a3.8,3.8,0,0,0,1.706.479A3.78,3.78,0,0,1,1.285,4.07,10.73,10.73,0,0,0,9.069,8.02a4.261,4.261,0,0,1-.093-.865,3.778,3.778,0,0,1,6.533-2.583,7.432,7.432,0,0,0,2.4-.912,3.765,3.765,0,0,1-1.659,2.08,7.567,7.567,0,0,0,2.174-.584,8.114,8.114,0,0,1-1.893,1.952Z" transform="translate(0 -3.381)" fill="#222"/>
</svg>
