<svg class="svg-icon" viewBox="0 0 24 24" fill="#ededed">
  <path d="M23.954 4.569c-.885.392-1.83.656-2.825.775 1.014-.611 1.794-1.574 2.163-2.723-.949.555-2.005.959-3.127 1.184-.897-.959-2.173-1.555-3.59-1.555-2.717 0-4.917 2.203-4.917 4.917 0 .39.045.765.127 1.124-4.083-.205-7.702-2.159-10.126-5.134-.422.722-.666 1.561-.666 2.475 0 1.708.87 3.213 2.188 4.096-.807-.026-1.566-.247-2.228-.616v.061c0 2.385 1.693 4.374 3.946 4.828-.413.111-.849.171-1.296.171-.314 0-.615-.03-.916-.086.631 1.953 2.445 3.376 4.604 3.416-1.68 1.319-3.808 2.105-6.102 2.105-.395 0-.779-.023-1.17-.067 2.189 1.394 4.768 2.209 7.557 2.209 9.054 0 14.002-7.496 14.002-13.986 0-.21 0-.42-.016-.63.962-.695 1.8-1.562 2.46-2.549z"/>
</svg>
