<svg xmlns="http://www.w3.org/2000/svg" width="11.611" height="11.611" viewBox="0 0 11.611 11.611">
  <path id="Icon_awesome-arrow-alt-circle-down" data-name="Icon awesome-arrow-alt-circle-down" d="M12.173,6.368a5.805,5.805,0,1,0-5.805,5.805A5.8,5.8,0,0,0,12.173,6.368ZM5.338,9.083V6.368H3.678a.281.281,0,0,1-.2-.48l2.69-2.676a.278.278,0,0,1,.4,0l2.69,2.676a.281.281,0,0,1-.2.48H7.4V9.083a.282.282,0,0,1-.281.281h-1.5A.282.282,0,0,1,5.338,9.083Z" transform="translate(-0.563 -0.563)" fill="#fff"/>
</svg>
