<svg xmlns="http://www.w3.org/2000/svg" width="11.611" height="11.611" viewBox="0 0 11.611 11.611">
  <path id="Icon_awesome-arrow-alt-circle-down" data-name="Icon awesome-arrow-alt-circle-down" d="M12.173,6.368A5.805,5.805,0,1,1,6.368.562,5.8,5.8,0,0,1,12.173,6.368ZM5.338,3.652V6.368H3.678a.281.281,0,0,0-.2.48l2.69,2.676a.278.278,0,0,0,.4,0l2.69-2.676a.281.281,0,0,0-.2-.48H7.4V3.652a.282.282,0,0,0-.281-.281h-1.5A.282.282,0,0,0,5.338,3.652Z" transform="translate(-0.563 -0.563)" fill="#fff"/>
</svg>