<svg xmlns="http://www.w3.org/2000/svg" width="99.785" height="95.947" viewBox="0 0 99.785 95.947">
  <g id="Groupe_1187" data-name="Groupe 1187" transform="translate(-1211.108 -2880.089)">
    <path id="Icon_ionic-ios-heart" data-name="Icon ionic-ios-heart" d="M76.295,3.938h-.24A27.293,27.293,0,0,0,53.267,16.411,27.293,27.293,0,0,0,30.48,3.938h-.24A27.119,27.119,0,0,0,3.375,31.043c0,8.875,3.886,21.468,11.466,31.83,14.44,19.741,38.427,37.012,38.427,37.012s23.987-17.27,38.427-37.012c7.58-10.362,11.466-22.955,11.466-31.83A27.119,27.119,0,0,0,76.295,3.938Z" transform="translate(1207.733 2876.152)"/>
    <g id="Icon_feather-arrow-up-right" data-name="Icon feather-arrow-up-right" transform="translate(1242.5 2907.5)">
      <path id="Tracé_2300" data-name="Tracé 2300" d="M10.5,25.55,25.55,10.5" fill="none" stroke="#d16b46" stroke-linecap="round" stroke-linejoin="round" stroke-width="2"/>
      <path id="Tracé_2301" data-name="Tracé 2301" d="M10.5,10.5H25.55V25.55" fill="none" stroke="#d16b46" stroke-linecap="round" stroke-linejoin="round" stroke-width="2"/>
    </g>
  </g>
</svg>
