<svg xmlns="http://www.w3.org/2000/svg" width="54" height="54" viewBox="0 0 54 54">
  <g id="Groupe_1187" data-name="Groupe 1187" transform="translate(-1234 -709)">
    <g id="Groupe_780" data-name="Groupe 780" transform="translate(1112 23)">
      <circle id="Ellipse_30" data-name="Ellipse 30" cx="27" cy="27" r="27" transform="translate(122 686)" fill="#e6e5df"/>
      <path id="Icon_awesome-arrows-alt-v" data-name="Icon awesome-arrows-alt-v" d="M6.9,10.866H5.574V3.854H6.9a.69.69,0,0,0,.488-1.178L4.912.2a.69.69,0,0,0-.976,0L1.462,2.676A.69.69,0,0,0,1.95,3.854H3.274v7.012H1.95a.69.69,0,0,0-.488,1.178l2.474,2.474a.69.69,0,0,0,.976,0l2.474-2.474A.69.69,0,0,0,6.9,10.866Z" transform="translate(144.576 705.64)" fill="#222"/>
    </g>
  </g>
</svg>
