<svg xmlns="http://www.w3.org/2000/svg" width="202" height="52.281" viewBox="0 0 202 52.281">
  <g id="Groupe_1193" data-name="Groupe 1193" transform="translate(-627 -660.719)">
    <text id="Laboratoire_créatif" data-name="Laboratoire créatif" transform="translate(720 710)" fill="#fff" font-size="14" font-family="Gilroy-Medium, Gilroy ☞" font-weight="500"><tspan x="-59.899" y="0">Laboratoire créatif</tspan></text>
    <g id="Groupe_32" data-name="Groupe 32" transform="translate(627 660.719)">
      <path id="Tracé_205" data-name="Tracé 205" d="M2085.143,759.684c-2.182,3.208-5.689,3.208-8.417,3.208h-18.9V736.548h17.848c2.1,0,5.652,0,7.715,2.164a5.963,5.963,0,0,1,1.559,4.142c.078,3.843-2.611,5.149-4.559,5.747,2.027.447,5.925,1.678,5.963,6.641A7.8,7.8,0,0,1,2085.143,759.684ZM2075.051,741.1h-10.405v5.783h9.859c.586,0,3.82.337,3.82-2.909C2078.325,741.064,2075.907,741.1,2075.051,741.1Zm.78,10.374h-11.185v6.791h10.6c1.092,0,4.247.075,4.247-3.582C2079.493,751.512,2076.844,751.474,2075.83,751.474Z" transform="translate(-2057.826 -736.548)" fill="#fff"/>
      <path id="Tracé_206" data-name="Tracé 206" d="M2085.068,762.892V736.548h6.39v26.344Z" transform="translate(-2051.859 -736.548)" fill="#fff"/>
      <path id="Tracé_207" data-name="Tracé 207" d="M2112.472,761.92a6.417,6.417,0,0,1-.391-2.015,15.323,15.323,0,0,1-8.806,2.536c-4.248,0-6.468-.969-7.833-2.388a5.338,5.338,0,0,1-1.6-3.917,5.075,5.075,0,0,1,2.924-4.963c2.454-1.12,6.624-1.12,9.235-1.12h6.118a3.545,3.545,0,0,0-.312-1.977c-.858-1.381-3.856-1.454-5.26-1.454a9.045,9.045,0,0,0-4.132.634,2.305,2.305,0,0,0-.9.709,1.638,1.638,0,0,0-.156.41l-6.507-.076a5.9,5.9,0,0,1,1.635-3.319c1.793-1.79,4.872-2.611,10.25-2.611a21.352,21.352,0,0,1,7.755,1.044,6.956,6.956,0,0,1,3.041,2.165c1.052,1.492,1.052,3.544,1.052,5.186v8.842a2.8,2.8,0,0,0,.9,2.315Zm-4.871-8.731a25.429,25.429,0,0,0-2.961.187c-2.106.187-3.158.522-3.7,1.418a2.123,2.123,0,0,0-.352,1.157,1.923,1.923,0,0,0,.352,1.081c.584.822,1.831,1.307,3.974,1.307a12.137,12.137,0,0,0,2.027-.187c.622-.113,3.662-.858,4.831-3.1a2.941,2.941,0,0,0,.311-1.865Z" transform="translate(-2049.938 -735.576)" fill="#fff"/>
      <path id="Tracé_208" data-name="Tracé 208" d="M2136.394,761.9v-9.628c0-1.605-.116-3.133-1.442-4.253-.7-.634-1.83-1.194-4.052-1.194-2.184,0-4.831.6-5.688,2.872a5.087,5.087,0,0,0-.274,2.053V761.9h-6.351V743.023h6.351v2.687a15.852,15.852,0,0,1,1.4-1.231,12.554,12.554,0,0,1,7.287-2.015c3.9,0,6.235,1.454,7.325,2.575a5.348,5.348,0,0,1,1.246,1.977,11.465,11.465,0,0,1,.624,4.44V761.9Z" transform="translate(-2044.521 -735.56)" fill="#fff"/>
      <path id="Tracé_209" data-name="Tracé 209" d="M2165.9,758.091c-2.726,3.135-7.17,4.628-11.34,4.628a17.478,17.478,0,0,1-6.507-1.269,16.639,16.639,0,0,1-1.988-1.119,9.526,9.526,0,0,1-2.922-12.686c2.259-3.806,7.442-5.374,11.73-5.374,1.286,0,6.584.187,10.014,3.432a8.309,8.309,0,0,1,1.948,2.651l-6.7.671c-.076-.075-.31-.373-.623-.671a6.907,6.907,0,0,0-4.636-1.457,8.023,8.023,0,0,0-2.494.41,5.434,5.434,0,0,0-4.015,5.149,5.761,5.761,0,0,0,.509,2.239c.623,1.343,2.221,3.358,5.962,3.358a8.232,8.232,0,0,0,4.715-1.454,3.482,3.482,0,0,0,1.131-1.381l6.546.9A9.826,9.826,0,0,1,2165.9,758.091Z" transform="translate(-2039.428 -735.591)" fill="#fff"/>
      <path id="Tracé_210" data-name="Tracé 210" d="M2183.254,762.892V752.631a6.055,6.055,0,0,0-.351-2.388c-.781-1.9-3.273-2.463-5.106-2.463-.271,0-4.13,0-5.494,2.276a3.521,3.521,0,0,0-.427,1.977v10.859h-6.43V736.548h6.43V746.4a9,9,0,0,1,1.286-1.044,12.551,12.551,0,0,1,7.014-1.83,14.009,14.009,0,0,1,3.9.485c.778.187,3.857,1.045,5.064,3.733a7.738,7.738,0,0,1,.585,3.693v11.456Z" transform="translate(-2034.263 -736.548)" fill="#fff" opacity="0.997"/>
      <path id="Tracé_211" data-name="Tracé 211" d="M2214.18,757.565a13.792,13.792,0,0,1-4.248,3.4,18.6,18.6,0,0,1-8.107,1.717c-10.327,0-13.132-6.008-13.132-10.375a8.81,8.81,0,0,1,3.7-7.388c3.507-2.575,8.261-2.611,9.508-2.611,4.871,0,10.169,1.754,12.158,6.456a11.736,11.736,0,0,1,.778,4.776h-19.56a6.661,6.661,0,0,0,.466,1.455c.7,1.454,2.573,3.244,6.43,3.244a8.745,8.745,0,0,0,5.183-1.491,5.657,5.657,0,0,0,1.053-1.119l6.663.634A15.749,15.749,0,0,1,2214.18,757.565Zm-6.976-8.882c-1.091-1.567-3.663-2.051-5.416-2.051-1.871,0-4.093.483-5.339,1.864a5.96,5.96,0,0,0-.973,1.643h12.274A4.765,4.765,0,0,0,2207.2,748.683Z" transform="translate(-2029.171 -735.586)" fill="#fff" opacity="0.997"/>
      <path id="Tracé_212" data-name="Tracé 212" d="M2220.316,747.387a4.8,4.8,0,1,1,5.029-4.812A4.881,4.881,0,0,1,2220.316,747.387Zm0-9.1a4.3,4.3,0,1,0,4.465,4.314A4.372,4.372,0,0,0,2220.316,738.286Zm1.3,7.078-1.339-2.143h-1v2.143h-1.325v-5.608h2.492a3.827,3.827,0,0,1,1.944.323,1.506,1.506,0,0,1,.705,1.348,1.688,1.688,0,0,1-1.436,1.712l1.462,2.225Zm-.17-4.462a2.118,2.118,0,0,0-1.113-.148h-1.054v1.456h1.112a3.517,3.517,0,0,0,.789-.053.7.7,0,0,0,.266-1.254Z" transform="translate(-2023.344 -736.341)" fill="#fff" opacity="0.997"/>
    </g>
  </g>
</svg>
