<svg xmlns="http://www.w3.org/2000/svg" width="222" height="50.986" viewBox="0 0 222 50.986">
  <g id="Groupe_1193" data-name="Groupe 1193" transform="translate(-1010 -103.014)">
    <g id="Groupe_952" data-name="Groupe 952" transform="translate(1031 103.014)">
      <path id="Tracé_1" data-name="Tracé 1" d="M206,150.486h-3.684l-8.344,11.686-8.344-11.686h-3.684v23.488h4.363V158.821l6.846,9.468h1.574l6.846-9.468v15.153H206Z" transform="translate(-181.946 -150.367)" fill="#fff"/>
      <path id="Tracé_2" data-name="Tracé 2" d="M258.605,150.6h4.339v23.472h-4.339Z" transform="translate(-222.827 -150.427)" fill="#fff"/>
      <path id="Tracé_3" data-name="Tracé 3" d="M494.894,150.6h4.339v23.472h-4.339Z" transform="translate(-348.836 -150.427)" fill="#fff"/>
      <path id="Tracé_4" data-name="Tracé 4" d="M434.465,173.857h4.021l10.865-23.64h-4.445l-8.36,18.711-8.36-18.711H423.6Z" transform="translate(-310.816 -150.217)" fill="#fff"/>
      <path id="Tracé_5" data-name="Tracé 5" d="M540.185,150.315h-4.021L525.3,173.955h4.445l8.36-18.711,8.36,18.711h4.586Z" transform="translate(-365.051 -150.271)" fill="#fff"/>
      <path id="Tracé_6" data-name="Tracé 6" d="M309.436,165.181c3.457-.939,5.891-3.253,5.891-7.109v-.067a6.907,6.907,0,0,0-2.046-5.063,10.265,10.265,0,0,0-7.126-2.347H295.149v3.79l10.654-.034c3.21,0,5.115,1.374,5.115,3.889v.067c0,2.381-1.976,3.923-5.08,3.923l-10.689-.028v11.864h4.339v-8.182h5.433l6.067,8.182H316.1Z" transform="translate(-242.315 -150.427)" fill="#fff"/>
      <path id="Tracé_7" data-name="Tracé 7" d="M369.409,154.422a7.714,7.714,0,1,1-8.1,7.7,7.922,7.922,0,0,1,8.1-7.7m0-4.045c-6.826,0-12.36,5.26-12.36,11.749s5.534,11.749,12.36,11.749,12.36-5.26,12.36-11.749-5.534-11.749-12.36-11.749Z" transform="translate(-275.326 -150.306)" fill="#fff"/>
    </g>
    <text id="Legal_Communications_Worldwide" data-name="Legal Communications Worldwide" transform="translate(1121 151)" fill="#fff" font-size="14" font-family="Gilroy-Medium, Gilroy ☞" font-weight="500"><tspan x="-110.166" y="0">Legal Communications Worldwide</tspan></text>
  </g>
</svg>
