<svg xmlns="http://www.w3.org/2000/svg" width="35.322" height="28.688" viewBox="0 0 35.322 28.688">
  <path id="Icon_awesome-twitter" data-name="Icon awesome-twitter" d="M31.691,10.53c.022.314.022.628.022.941,0,9.57-7.284,20.6-20.6,20.6A20.457,20.457,0,0,1,0,28.819a14.976,14.976,0,0,0,1.748.09,14.5,14.5,0,0,0,8.987-3.093A7.252,7.252,0,0,1,3.967,20.8a9.129,9.129,0,0,0,1.367.112,7.656,7.656,0,0,0,1.905-.246,7.24,7.24,0,0,1-5.8-7.1v-.09a7.291,7.291,0,0,0,3.272.919A7.25,7.25,0,0,1,2.465,4.7a20.577,20.577,0,0,0,14.927,7.575,8.172,8.172,0,0,1-.179-1.658A7.246,7.246,0,0,1,29.741,5.667a14.253,14.253,0,0,0,4.595-1.748,7.22,7.22,0,0,1-3.183,3.989,14.512,14.512,0,0,0,4.169-1.121,15.561,15.561,0,0,1-3.631,3.743Z" transform="translate(0 -3.381)" fill="#f3f0e6"/>
</svg>
