<svg xmlns="http://www.w3.org/2000/svg" width="224" height="54" viewBox="0 0 224 54">
  <g id="Groupe_1193" data-name="Groupe 1193" transform="translate(-1009 -285)">
    <g id="Groupe_48" data-name="Groupe 48" transform="translate(1031 285)" opacity="0.8">
      <g id="Groupe_1" data-name="Groupe 1" transform="translate(54.055)">
        <path id="Tracé_1" data-name="Tracé 1" d="M504.586,487.4V458.54h3.385V487.4Z" transform="translate(-504.586 -458.54)" fill="#fff"/>
      </g>
      <g id="Groupe_2" data-name="Groupe 2" transform="translate(60.578 7.467)">
        <path id="Tracé_2" data-name="Tracé 2" d="M547.7,504.471v2.635a12.989,12.989,0,0,1-1.863.125c-2.286,0-3.515-1.014-3.683-3a8.032,8.032,0,0,1-7.112,3.366c-4.783,0-7.7-2.229-7.7-6.121,0-3.77,2.709-5.959,8.086-6.482l3.134-.324c2.286-.243,3.429-1.216,3.429-2.878,0-2.27-1.312-3.284-4.911-3.284-3.768,0-5.292,1.053-5.5,4.135h-3.385q.444-6.932,8.891-6.932c5.462,0,8.214,2.027,8.214,6.081v11.674c0,.689.382,1.013,1.186,1.013Zm-7.748-1.217a5.208,5.208,0,0,0,2.032-4.418v-2.473a5.662,5.662,0,0,1-2.878.891l-3.175.365c-3.768.446-5.077,1.621-5.077,3.77s1.44,3.446,4.36,3.446a7.472,7.472,0,0,0,4.74-1.581Z" transform="translate(-527.334 -485.711)" fill="#fff"/>
      </g>
      <g id="Groupe_3" data-name="Groupe 3" transform="translate(80.136 7.946)">
        <path id="Tracé_3" data-name="Tracé 3" d="M624.428,487.477h3.645l-7.282,20.917h-3.566l-3.217-9.689c-.8-2.513-1.562-4.862-2.2-7.093-.8,2.716-1.562,5.068-2.243,7.093l-3.175,9.689h-3.556l-7.282-20.917H599.2l3.089,9.444c.635,1.946,1.44,4.5,2.371,7.62.762-2.635,1.523-5.188,2.328-7.62l3.048-9.444h3.557l3.048,9.444c1.058,3.366,1.863,5.878,2.371,7.539.466-1.662,1.271-4.175,2.329-7.539Z" transform="translate(-595.552 -487.477)" fill="#fff"/>
      </g>
      <g id="Groupe_4" data-name="Groupe 4" transform="translate(113.084 7.451)">
        <path id="Tracé_4" data-name="Tracé 4" d="M713.089,504.636a11.644,11.644,0,0,1-2.582-7.986,11.771,11.771,0,0,1,2.625-8.027,8.81,8.81,0,0,1,6.943-2.918,8.346,8.346,0,0,1,8.606,6.5.467.467,0,0,1-.1.408.512.512,0,0,1-.393.183h-.178a.5.5,0,0,1-.486-.382,7.343,7.343,0,0,0-7.455-5.7c-5.077,0-8.382,3.73-8.382,9.932s3.255,9.932,8.382,9.932a7.419,7.419,0,0,0,5.123-1.87,7.752,7.752,0,0,0,2.474-4.347.5.5,0,0,1,.488-.4h.181a.512.512,0,0,1,.387.179.467.467,0,0,1,.1.4,8.506,8.506,0,0,1-2.782,4.853,8.7,8.7,0,0,1-5.969,2.189A8.8,8.8,0,0,1,713.089,504.636Z" transform="translate(-710.488 -485.698)" fill="#fff"/>
      </g>
      <g id="Groupe_5" data-name="Groupe 5" transform="translate(133.666 7.463)">
        <path id="Tracé_5" data-name="Tracé 5" d="M802.244,506.676h0a.491.491,0,0,1-.458.477c-.223.02-.44.035-.642.035-2.074,0-3.006-.932-3.006-3.08V502.4c-1.4,3.446-4.36,5.188-8.975,5.188-4.445,0-6.943-2.392-6.943-5.837s2.243-5.473,7.451-6.121l3.645-.445c3.9-.486,4.783-1.581,4.783-4.014q0-4.5-6.477-4.5c-4.838,0-7.021,1.569-7.3,5.141a.5.5,0,0,1-.5.454h-.143a.509.509,0,0,1-.362-.146.465.465,0,0,1-.138-.352c.3-4.043,2.864-6.064,8.44-6.064,5.123,0,7.62,2.108,7.62,5.473v12.891c0,1.5.635,2.148,2.032,2.148.1,0,.269-.009.447-.017a.513.513,0,0,1,.367.13A.468.468,0,0,1,802.244,506.676Zm-4.149-8.325v-4.094c-.635.932-2.2,1.581-4.614,1.87l-3.645.486c-4.4.527-6.435,2.068-6.435,5.111,0,2.959,2.032,4.905,5.8,4.905,5.3-.01,8.9-2.766,8.9-8.279Z" transform="translate(-782.219 -485.708)" fill="#fff"/>
      </g>
      <g id="Groupe_6" data-name="Groupe 6" transform="translate(155.809 7.694)">
        <path id="Tracé_6" data-name="Tracé 6" d="M870.1,487.08v.125a.49.49,0,0,1-.5.479h-.812c-5.292,0-8.171,3.446-8.171,8.594v10.994a.49.49,0,0,1-.5.479h-.186a.49.49,0,0,1-.5-.479V487.314a.49.49,0,0,1,.5-.479h.143a.49.49,0,0,1,.5.479v4.872a8.135,8.135,0,0,1,8.171-5.593c.333,0,.621,0,.88.009a.486.486,0,0,1,.475.479Z" transform="translate(-859.431 -486.585)" fill="#fff"/>
      </g>
      <g id="Groupe_7" data-name="Groupe 7" transform="translate(166.807 7.464)">
        <path id="Tracé_7" data-name="Tracé 7" d="M916.83,496.932H899.05c.13,5.878,3.091,9.648,8.463,9.648a7.582,7.582,0,0,0,7.707-6.188.5.5,0,0,1,.484-.374h.145a.5.5,0,0,1,.385.17.461.461,0,0,1,.108.392,9,9,0,0,1-6.673,6.73A9.469,9.469,0,0,1,900.4,504.6a11.875,11.875,0,0,1-2.54-7.946,12.16,12.16,0,0,1,2.5-7.945,9.636,9.636,0,0,1,14.012.041,11.947,11.947,0,0,1,2.455,7.824Zm-17.78-1.012H915.6c-.212-5.514-3.132-9.2-8.255-9.2C902.309,486.716,899.349,490.284,899.05,495.92Z" transform="translate(-897.843 -485.709)" fill="#fff"/>
      </g>
      <g id="Groupe_8" data-name="Groupe 8" transform="translate(0 7.18)">
        <path id="Tracé_8" data-name="Tracé 8" d="M334.231,507.151a5.283,5.283,0,0,1-4.075-1.833,8.5,8.5,0,0,1-1.717-3.666c-2.135,3.74-4.236,5.5-6.51,5.5a4.8,4.8,0,0,1-3.657-1.628c-2.344-2.592-2.807-8.557-1.4-17.727a2.368,2.368,0,0,1,2.7-1.924,2.3,2.3,0,0,1,2.009,2.588c-1.432,9.318-.457,13.436.29,14.1,2.053-1.088,6.045-10.192,6.925-15.066v-.026h0a2.373,2.373,0,0,1,2.75-1.861,2.292,2.292,0,0,1,1.944,2.633v.03c-1.413,7.86-.834,12.829.3,14.119a.477.477,0,0,0,.432.211c2.686,0,7.183-9.561,7.183-15.27a2.383,2.383,0,0,1,4.762,0,16.651,16.651,0,0,0,1.172,6.358c1.285-5.222,5.587-8.961,10.836-8.961a6.14,6.14,0,0,1,4.639,1.666,5.6,5.6,0,0,1,1.74,4.442c0,4.2-3.733,8.719-12.024,9.787a4.8,4.8,0,0,0,4.46,1.932c2.517,0,3.927-.643,5.029-2.3a2.445,2.445,0,0,1,3.289-.693,2.223,2.223,0,0,1,.724,3.149c-2.005,3-4.878,4.4-9.043,4.4-5.156,0-8.608-2.546-9.689-6.959a7.431,7.431,0,0,1-1.925-1.247,8.851,8.851,0,0,1-1.463-1.694c-.26.667-.552,1.32-.853,1.951C340.582,504.394,337.518,507.151,334.231,507.151ZM321.748,502.615Zm36.435-13.339c-3.881,0-6.111,3.381-6.428,6.834,4.156-.542,8.048-2.428,8.048-5.281,0-1.217-.345-1.551-1.62-1.551Z" transform="translate(-316.08 -484.71)" fill="#fff"/>
      </g>
    </g>
    <text id="Gestion_et_communication_de_crise" data-name="Gestion et communication de crise" transform="translate(1121 336)" fill="#fff" font-size="14" font-family="Gilroy-Medium, Gilroy ☞" font-weight="500"><tspan x="-111.671" y="0">Gestion et communication de crise</tspan></text>
  </g>
</svg>
