<svg xmlns="http://www.w3.org/2000/svg" width="266" height="46.378" viewBox="0 0 266 46.378">
  <g id="Groupe_1194" data-name="Groupe 1194" transform="translate(-991 -656.622)">
    <g id="Groupe_960" data-name="Groupe 960" transform="translate(-163 1809.622)">
      <path id="Tracé_1" data-name="Tracé 1" d="M186.254,179.349v.357c-2.557,4.936-5,9.932-7.2,14.868a39.444,39.444,0,0,0-1.784,4.341l-7.374,22h-3.39c-2.736-8.326-5.412-15.7-8.148-22.3l-7.791,22.3h-3.39c-4.579-13.262-9.515-26.346-14.927-39.251-.476-1.13-1.13-1.963-2.2-1.963h-.178v-.357h18.377v.357h-.238c-1.487,0-2.022,1.189-1.546,2.736,2.557,7.85,5.471,15.7,8.8,23.551l2.26-6.423a5.733,5.733,0,0,0-.3-4.163l-5-13.738c-.416-1.13-1.13-1.963-2.2-1.963h-.178v-.357h18.317v.357h-.238c-1.487,0-2.022,1.189-1.546,2.736,2.26,7.672,5,15.4,8.088,23.432L176.8,198.8a7.055,7.055,0,0,0-.3-4.222,139.194,139.194,0,0,0-5.115-14.868v-.357Z" transform="translate(1024.125 -1329.732)"/>
      <path id="Tracé_2" data-name="Tracé 2" d="M441.9,174.781a6.219,6.219,0,0,1,6.542-6.066c3.568,0,6.482,2.319,6.482,5.947,0,3.39-2.141,6.244-6.661,6.244a5.978,5.978,0,0,1-6.363-6.125M441,211.416c.892-.238,1.308-.833,1.368-2.379.178-7.2.178-14.868,0-22.183-.06-2.081-.654-2.617-1.427-2.8l-.951-.178v-.357a136.521,136.521,0,0,0,14.57-1.249l.178.119c-.238,10.586-.357,19.447-.178,26.643.059,1.546.476,2.141,1.368,2.379l.238.059v.357h-15.4v-.357Z" transform="translate(769.513 -1321.002)"/>
      <path id="Tracé_3" data-name="Tracé 3" d="M530.439,208.2l.238-.059c.952-.238,1.308-.654,1.368-2.438.416-12.073.178-29.319-.238-37.17a1.454,1.454,0,0,0-1.427-1.606l-1.07-.178v-.357a106.449,106.449,0,0,0,14.452-1.665H544c-.179,15.522,0,27.119.238,41.035,0,1.546.238,2.2,1.308,2.379l.357.059v.357H530.439Z" transform="translate(696.182 -1317.729)"/>
      <path id="Tracé_4" data-name="Tracé 4" d="M644.177,260.176c0-9.159-.952-15.284-2.855-15.284-1.665,0-2.26,4.936-2.26,14.095,0,9.218.952,15.284,2.914,15.284,1.606,0,2.2-4.877,2.2-14.095m-17.841,0c0-10.229,6.185-15.7,15.284-15.7,9.04,0,15.284,5.055,15.284,14.511,0,10.229-6.185,15.7-15.165,15.7-9.159,0-15.4-5.055-15.4-14.511" transform="translate(616.522 -1383.202)"/>
    </g>
    <text id="Le_blog_d_eliott_markus" data-name="Le blog 
d’eliott &amp; markus" transform="translate(1132 678)" fill="#222" font-size="16" font-family="Gilroy-Bold, Gilroy" font-weight="700"><tspan x="0" y="0">Le blog </tspan><tspan x="0" y="21">d’eliott &amp; markus</tspan></text>
  </g>
</svg>
